<svg xmlns="http://www.w3.org/2000/svg" viewBox="0 0 581 338" role="img" aria-labelledby="title desc">
<title id="title">Cyventura</title><desc id="desc">Cyventura company logo</desc>
<path d="M403 237L402 238L402 273L406 285L413 291L419 293L430 293L436 291L442 286L443 287L443 292L453 292L453 237L443 237L443 270L439 279L434 283L431 284L423 284L419 282L415 278L413 273L413 237ZM169 237L171 245L174 250L176 257L179 262L179 264L182 269L182 271L191 292L203 292L210 277L212 270L215 265L217 258L220 253L220 251L223 246L223 244L226 239L226 237L215 237L200 273L199 278L197 280L191 267L190 262L188 259L180 237ZM162 237L152 237L151 238L148 247L135 276L131 269L131 267L127 260L127 258L117 237L106 237L129 288L129 291L119 313L130 313L131 312L131 310L134 305L134 303L137 298L137 296L140 291L140 289L143 284L143 282L146 277L149 268L153 261L155 254L163 238ZM511 240L502 250L499 259L499 270L500 271L500 274L503 281L506 285L514 291L521 293L531 293L532 292L535 292L542 288L545 285L546 286L546 292L556 292L556 237L546 237L546 243L545 244L539 239L531 236L521 236ZM525 245L531 245L538 248L542 252L546 262L546 267L544 274L538 281L532 284L523 284L517 281L512 275L510 270L510 259L512 254L519 247ZM497 236L488 236L480 240L477 244L476 243L476 237L466 237L466 292L476 292L476 260L477 259L477 256L479 252L483 248L487 246L494 246L496 243L496 241L498 239ZM298 237L297 238L298 239L297 242L298 244L298 292L308 292L308 259L309 258L309 255L316 247L321 245L332 246L337 251L339 255L339 290L340 292L350 292L350 253L347 245L341 239L333 236L322 236L321 237L318 237L314 239L309 244L308 243L308 237ZM246 238L241 241L235 247L232 252L230 258L230 271L232 277L235 282L241 288L246 291L253 293L269 292L278 287L282 283L277 277L275 276L275 277L269 282L264 284L254 284L249 282L243 276L241 269L242 268L285 268L285 258L283 251L280 246L275 241L270 238L263 236L253 236ZM241 258L244 252L248 248L255 245L262 245L267 247L272 252L274 256L274 260L273 261L242 261ZM367 221L367 236L366 237L357 237L357 246L366 246L367 247L367 279L368 280L368 283L370 287L377 292L380 292L381 293L394 292L397 290L397 288L394 282L390 284L384 284L382 283L378 278L378 247L379 246L393 246L393 237L379 237L378 236L378 219ZM54 215L48 217L39 222L29 233L24 245L24 263L26 270L31 279L38 286L46 291L56 294L73 294L83 291L91 286L97 280L99 277L99 275L90 270L85 277L75 283L72 283L71 284L58 284L52 282L47 279L40 272L37 266L36 259L35 258L36 246L40 237L48 229L57 225L67 224L68 225L76 226L85 232L90 239L98 235L99 232L89 221L79 216L70 215L69 214ZM227 173L227 174L236 182L246 189L251 191L290 152L332 193L341 190L352 183L359 177L359 176L290 107ZM359 57L345 43L333 35L314 27L299 25L298 24L281 24L280 25L265 27L246 35L233 44L224 53L213 68L205 87L204 95L203 96L203 101L202 102L202 120L203 121L204 133L208 145L214 157L223 169L245 146L242 142L236 129L236 126L234 121L234 103L235 102L236 95L240 86L247 76L253 70L265 62L276 58L280 58L281 57L298 57L314 62L328 72L333 78L359 59Z" fill="#076a76" fill-rule="evenodd"/>
</svg>
